PathFileType	4	(X/Y/Z)	Kaydara	
DataRate	CameraRate	NumFrames	NumMarkers	Units	OrigDataRate	OrigDataStartFrame	OrigNumFrames	
240.00	240.00	4	72	mm	240.00	45	355	
Frame#	Time	Hips			RightUpLeg			RightLeg			RightFoot			RightFoot_End			LeftUpLeg			LeftLeg			LeftFoot			LeftFoot_End			Spine			Spine1			Spine2			Spine3			Neck			Head			Head_End			RightShoulder			RightArm			RightForeArm			RightHand			RightHandThumb1			RightHandThumb2			RightHandThumb3			RightHandThumb3_End			RightInHandIndex			RightHandIndex1			RightHandIndex2			RightHandIndex3			RightHandIndex3_End			RightInHandMiddle			RightHandMiddle1			RightHandMiddle2			RightHandMiddle3			RightHandMiddle3_End			RightInHandRing			RightHandRing1			RightHandRing2			RightHandRing3			RightHandRing3_End			RightInHandPinky			RightHandPinky1			RightHandPinky2			RightHandPinky3			RightHandPinky3_End			LeftShoulder			LeftArm			LeftForeArm			LeftHand			LeftHandThumb1			LeftHandThumb2			LeftHandThumb3			LeftHandThumb3_End			LeftInHandIndex			LeftHandIndex1			LeftHandIndex2			LeftHandIndex3			LeftHandIndex3_End			LeftInHandMiddle			LeftHandMiddle1			LeftHandMiddle2			LeftHandMiddle3			LeftHandMiddle3_End			LeftInHandRing			LeftHandRing1			LeftHandRing2			LeftHandRing3			LeftHandRing3_End			LeftInHandPinky			LeftHandPinky1			LeftHandPinky2			LeftHandPinky3			LeftHandPinky3_End			
		X1	Y1	Z1	X2	Y2	Z2	X3	Y3	Z3	X4	Y4	Z4	X5	Y5	Z5	X6	Y6	Z6	X7	Y7	Z7	X8	Y8	Z8	X9	Y9	Z9	X10	Y10	Z10	X11	Y11	Z11	X12	Y12	Z12	X13	Y13	Z13	X14	Y14	Z14	X15	Y15	Z15	X16	Y16	Z16	X17	Y17	Z17	X18	Y18	Z18	X19	Y19	Z19	X20	Y20	Z20	X21	Y21	Z21	X22	Y22	Z22	X23	Y23	Z23	X24	Y24	Z24	X25	Y25	Z25	X26	Y26	Z26	X27	Y27	Z27	X28	Y28	Z28	X29	Y29	Z29	X30	Y30	Z30	X31	Y31	Z31	X32	Y32	Z32	X33	Y33	Z33	X34	Y34	Z34	X35	Y35	Z35	X36	Y36	Z36	X37	Y37	Z37	X38	Y38	Z38	X39	Y39	Z39	X40	Y40	Z40	X41	Y41	Z41	X42	Y42	Z42	X43	Y43	Z43	X44	Y44	Z44	X45	Y45	Z45	X46	Y46	Z46	X47	Y47	Z47	X48	Y48	Z48	X49	Y49	Z49	X50	Y50	Z50	X51	Y51	Z51	X52	Y52	Z52	X53	Y53	Z53	X54	Y54	Z54	X55	Y55	Z55	X56	Y56	Z56	X57	Y57	Z57	X58	Y58	Z58	X59	Y59	Z59	X60	Y60	Z60	X61	Y61	Z61	X62	Y62	Z62	X63	Y63	Z63	X64	Y64	Z64	X65	Y65	Z65	X66	Y66	Z66	X67	Y67	Z67	X68	Y68	Z68	X69	Y69	Z69	X70	Y70	Z70	X71	Y71	Z71	X72	Y72	Z72	

45	0.183	5921.0129	906.651	56.2195	5993.612212723013	885.6710072263461	-7.847802953369554	5904.591376946711	485.674172690692	-95.42221598284358	5897.561153972882	101.1181980888349	-169.11281018458834	5822.563900265398	25.41574988101795	-10.404176578658069	5857.83971604093	899.5001447319329	132.32054046146695	5786.609248086792	496.2807476717915	221.67516935366706	5738.780976032501	62.434044102813516	291.39728434666347	5605.909086744484	-13.174967102372662	176.2195452695576	5876.525543419092	1032.3616628531165	4.064989809442713	5825.263648185629	1097.054164409493	-47.216487349785204	5766.503094964588	1158.128709668884	-102.67261299124863	5702.8224338807195	1206.5568330836343	-158.66585635300208	5634.477411512373	1258.5364024970575	-217.88846007167314	5571.1102581924715	1305.8294468572412	-270.84969766559186	5452.982362835501	1401.7139495273075	-319.74205480069656	5676.838253846996	1236.5983956385319	-225.24182826844265	5712.0106464383225	1190.153868657492	-349.9011244301844	5661.471822981342	909.3199239045966	-324.029708918437	5627.197512438071	656.1521671128761	-334.4828839168768	5609.3467461306445	627.5657476004446	-353.34642124932907	5574.858572445847	610.0009074427686	-355.7077997406866	5552.108322655629	597.5375247268288	-354.38152351558506	5534.226581166408	586.9495352495237	-350.73447205005135	5614.086564516782	622.378876719672	-345.3971018116347	5590.8033473159985	577.4212961158152	-346.86021017756565	5564.800864592024	555.4040310395014	-342.7009006525528	5544.03043059754	550.4804626059598	-339.5795273629892	5523.732738451278	552.317194572214	-336.6347365499929	5617.878064868493	623.755321337024	-337.02014663927747	5597.221932875093	580.6469258386661	-333.91759551865067	5569.411615280914	556.9607317770517	-328.2624293366464	5544.623275830773	551.1833430754799	-323.96081575900433	5522.5453851031425	553.2721681781373	-320.478209783348	5621.254066401685	625.7704543756315	-331.0979348042477	5605.974473250786	588.5800516277061	-323.2743689566564	5582.342328456474	568.3506868878865	-317.20861214625495	5558.754579028724	562.9986709965145	-312.45571493673754	5538.148652116152	565.067303971016	-308.8951302586361	5625.007000006814	630.2192586049125	-323.9664211156783	5613.644943410584	598.48569987349	-312.5068323614091	5595.734725110516	583.0981321698698	-305.91010316515076	5579.020002554356	579.5868298006798	-301.6018675206267	5561.04866352645	581.6451795179037	-297.9635049001663	5637.174762173345	1246.8882748745198	-169.59526582350742	5584.868788604151	1210.7040422545076	-42.348723171115346	5647.554973365639	974.4428303904901	-154.64212537033166	5739.068119773128	731.6810280965033	-260.9874074469726	5704.131496744217	711.574544216913	-276.46484973739894	5687.703045409638	691.113711341573	-311.4420933245454	5679.373713914728	675.155421590182	-335.1612205433471	5675.091669912443	660.3893699828783	-354.3881590640888	5710.661734197975	702.6571582119641	-273.64841189168	5684.931005265367	656.0529734434285	-299.0556760513546	5674.599619688068	628.6690044643165	-327.12984395391464	5671.796414356803	619.423982891248	-348.83742863664753	5671.91788367566	617.0194477364408	-369.67416818899494	5720.379973585873	699.8699969437787	-271.5200433755559	5700.537431592273	652.9046616944812	-295.14732515119863	5690.639057065686	622.813016529048	-325.4315576521981	5687.917033333853	611.5583500063979	-351.452891066406	5688.370765991052	608.8783181373192	-374.1703550328501	5727.8408221965765	699.0184285278448	-269.2633429980169	5716.354001546638	655.9790983277203	-288.17293288005214	5709.164112091624	629.6109813482207	-314.1747030562377	5707.301944446312	618.6805677015327	-339.0650699512277	5708.090351061809	616.1254170625557	-360.32604533584987	5737.671301684132	699.9519861909633	-266.75072441836534	5732.980790203015	660.7964456304799	-282.2025049804123	5729.516715506103	639.6514461008608	-302.3272540339458	5729.267801249049	631.6640567870369	-320.1454688073633	5730.6046496519175	629.3921486487267	-338.7853324180974
46	0.188	5921.0129	906.651	56.2195	5993.509375289835	885.6407914909911	-7.784402333928499	5904.8464349364685	485.525911237548	-95.09667206052082	5897.8957360127	101.08175348516447	-168.99144131761176	5822.890980534711	25.364121852826052	-10.293999406003083	5857.90010620541	899.5136165851459	132.24895680074246	5786.689655640389	496.2960487123218	221.60503542768754	5739.034761072278	62.47539011309962	291.5699685540307	5606.193876666601	-13.146431797365636	176.3751462421353	5876.717780483603	1032.4382025900727	4.099830822101566	5825.626019453186	1097.2754412220502	-47.17435481404371	5767.031306939961	1158.5002876279098	-102.6436391288488	5703.483716058248	1207.054547855035	-158.68082772323604	5635.2729448435375	1259.1643167539205	-217.94530834095232	5572.021521432982	1306.5728423772507	-270.9406958145499	5453.83916280777	1402.4049517557269	-319.79920067149845	5677.593736995019	1237.1961826671263	-225.25254367462978	5712.857774974819	1190.9581721666095	-349.9368514507193	5662.699178171788	910.3021000838384	-323.3406902277567	5628.069895254348	656.2270435573963	-332.0518148565672	5610.467594756637	627.381031858109	-350.9277083703124	5576.078993503082	609.511158437906	-353.3553992436338	5553.352023122102	596.8468747182324	-352.0454443270128	5535.450283191685	586.10126147327	-348.3864559653746	5615.068344725157	622.2157096992377	-342.85645701702737	5591.767356533266	576.9195090585488	-344.1107850530494	5565.735104408648	554.6449397476906	-339.8918124348825	5544.9755117370105	549.5664054074388	-336.82087075297375	5524.706589749365	551.2782448312536	-333.9768599853831	5618.7343530363005	623.6342548418417	-334.409627934348	5597.993013986184	580.2183579783975	-331.06561951046535	5570.133689604118	556.2580201562672	-325.33691345294733	5545.350501235731	550.2968506001769	-321.0920960710981	5523.300235918751	552.2505665293639	-317.7177940446468	5622.022020007314	625.688000838944	-328.4422717146704	5606.589009181571	588.2562009674425	-320.3598869227416	5582.897397901002	567.7951464614564	-314.22180325418003	5559.305720941506	562.2697121479184	-309.5193205036024	5538.721553143267	564.2131342316907	-306.0584981036902	5625.674665906997	630.189323699344	-321.2734894784271	5614.109633542244	598.2673897547968	-309.5497582684827	5596.126331714541	582.7066630834952	-302.88341081828446	5579.396426115964	579.0748521343404	-298.6062871744458	5561.437272811929	581.0257289737368	-295.0530400750159	5637.9209085297	1247.4578989291492	-169.67099905405195	5585.39698701477	1211.3624049395876	-42.58212322626744	5648.937611218229	975.0541876136022	-153.80284240058126	5740.914527819924	731.7550858612832	-258.8491308544043	5706.122000565997	711.6501874424507	-274.6183282592884	5690.070185443142	691.3148316556552	-309.6171840443904	5682.019066936302	675.4313916123696	-333.3278110595859	5677.98257909998	660.7170176404185	-352.52751610462263	5712.7070537486325	702.670847743641	-271.7687993226859	5687.406459294783	656.0023005364224	-297.37762907442186	5677.4571247322765	628.6652729714145	-325.4608533840207	5674.89049751109	619.5149896256223	-347.1055887106866	5675.207146383143	617.2330879989307	-367.84411618036205	5722.457562877224	699.8562002090315	-269.56312357773527	5703.0519922572	652.8131942090146	-293.3452282700333	5693.573477440324	622.7694680829702	-323.6283249486818	5691.138299764723	611.6275147244477	-349.5685453984564	5691.8062862102925	609.0808956087823	-372.1759770606452	5729.929583491325	698.9858289576854	-267.24788053446673	5718.842172058034	655.8575657795714	-286.248968357564	5712.020584048077	629.5279725285324	-312.23822927488055	5710.436350231992	618.7045577737539	-337.0442388191864	5711.426800725687	616.274032859736	-358.1988570518753	5739.7656003291095	699.907663808893	-264.65234988045114	5735.442795341378	660.659863255927	-280.14109057079816	5732.275572255054	639.541048640061	-300.2374434008519	5732.230317477175	631.6294488295911	-317.9852368586653	5733.746681072603	629.4666405279243	-336.5257686880495
47	0.192	5921.0129	906.651	56.2195	5993.407781271243	885.6138327716785	-7.716062548971729	5905.1092678904	485.3801510558113	-94.76763903894616	5898.234878991556	101.0486937210582	-168.86717673558334	5823.222801690663	25.31568985898881	-10.180955939957425	5857.959328757259	899.5237101866607	132.17201582669918	5786.773532908017	496.3079385682893	221.53262939892406	5739.291971663711	62.51494156493194	291.7430854601909	5606.481994431427	-13.119097882264029	176.53101323039158	5876.909678614268	1032.5151990074019	4.136380803388055	5825.987585716572	1097.497054217759	-47.12959799968176	5767.558818954211	1158.872390288841	-102.61120379178499	5704.145172692943	1207.5531346339567	-158.69203898617675	5636.069551546335	1259.7935069593543	-217.99805904851803	5572.934658119739	1307.3178459837472	-271.02735406711537	5454.697901561032	1403.0971469605736	-319.8525444643019	5678.35113837608	1237.7984754014947	-225.2564184792571	5713.720379192325	1191.7873171681733	-349.9582572283683	5663.968514980297	911.3157216832302	-322.63478146010107	5629.026366582905	656.3186565590463	-329.60734595267644	5611.685531243935	627.2138695119473	-348.4941174496665	5577.410882118775	609.0356246131864	-350.9916342638223	5554.716595026312	596.167510867709	-349.700612685583	5536.802174295915	585.2613151049488	-346.03200627681144	5616.146095109679	622.0682286291394	-340.30091131287753	5592.843765007986	576.4285915042354	-341.3468540691325	5566.793834310402	553.8921706508145	-337.07105399115505	5546.05218307589	548.656053098327	-334.05354720097597	5525.817626898359	550.2409751200968	-331.3136389623569	5619.684411320661	623.5273415488457	-331.7847655666193	5598.872699446916	579.7984167770619	-328.1999858438745	5570.9772190137555	555.5587850639199	-322.4009095971803	5546.2075832690225	549.4105866989973	-318.21654796671373	5524.190986056515	551.2269340107496	-314.95420289174376	5622.881762744304	625.6187477548774	-325.77262373366204	5607.306887394012	587.9397919748573	-317.4322735476418	5583.566636743927	567.2423751884877	-311.2247020365528	5559.978937785334	561.5402920217762	-306.57620420462905	5539.42211672663	563.3563325526375	-303.21859802906425	5626.431420063795	630.1715737267364	-318.56717070946206	5614.672323808861	598.055379292771	-306.58036520345115	5596.623975170338	582.317490632938	-299.84678838431057	5579.8843465384125	578.5626883458368	-295.60343692394224	5561.942152393587	580.4040966712898	-292.13839713465495	5638.666519547724	1248.0251175928706	-169.74566670485717	5585.92135927882	1212.0051800564358	-42.83173702103158	5650.340288990292	975.6735355458152	-152.97763680229338	5742.8080957537	731.8545143673074	-256.7086651125279	5708.169711930586	711.7571963309714	-272.7711962932349	5692.503455139072	691.5469426047621	-307.7890253418401	5684.73595099461	675.7375519618198	-331.4898871992284	5680.948827580156	661.0737272272661	-350.66179424876435	5714.80759924119	702.7150891883282	-269.89144139517254	5689.946423236259	655.9856341757281	-295.7078639806512	5680.385561392288	628.6949133778853	-323.8007765201137	5678.059424267579	619.637476839751	-345.3801655181986	5678.574436416439	617.4756335406557	-366.01646491504005	5724.587844639007	699.8712243444555	-267.60963723141776	5705.626930351692	652.752981685157	-291.5530822674094	5696.574918151228	622.7562386637794	-321.8358641128654	5694.431131309793	611.7245997359494	-347.69202220410045	5695.31677009532	609.3085188484687	-370.1850580235057	5732.069007380417	698.9807671391236	-265.2365716660094	5721.386121378701	655.7647205453457	-284.33574378351534	5714.9382402140955	629.4725823257961	-310.31333473905886	5713.636119790748	618.7537183671227	-335.03220770763267	5714.831712876037	616.4450527439163	-356.0763970891202	5741.907977201946	699.8890795097485	-262.5584604135521	5737.955970728616	660.5490589811473	-278.090546468553	5735.089305421975	639.4551736786674	-298.15933914794925	5735.250457694558	631.6173843110877	-315.83476344206815	5736.948908200022	629.5611139268524	-334.2724022815926
48	0.196	5921.0129	906.651	56.2195	5993.307493024571	885.5901750502998	-7.64275289279101	5905.379703824131	485.2370297557824	-94.4353259473599	5898.57831271628	101.01907732121865	-168.7400652113343	5823.559102297117	25.270533979702982	-10.065080041445901	5858.017345027273	899.5303927396513	132.08969363119343	5786.860894131634	496.31639817700676	221.45802647108462	5739.552475513132	62.55267952158515	291.9165853548728	5606.773303929299	-13.092987062018068	176.68710088391074	5877.101130819473	1032.5926004875566	4.174608410369511	5826.348101792991	1097.718838261623	-47.08224099875499	5768.085256499089	1159.2447440223737	-102.57529953607252	5704.80633975461	1208.0522521573725	-158.699419397114	5636.866677840122	1260.4235630996623	-218.04657753011816	5573.8490396979	1308.063988458829	-271.1094836083047	5455.558003095577	1403.79012386867	-319.90190944228385	5679.109904755826	1238.4048958484486	-225.25330871741258	5714.5977679420175	1192.640875613309	-349.9648457368708	5665.279495581488	912.3604418819541	-321.912125338329	5630.067317871458	656.4280198627099	-327.1509675925359	5613.0009172448	627.0656373729244	-346.04686920847587	5578.8547722500125	608.5759854664966	-348.6176556967506	5556.2027182517695	595.5013042396039	-347.34819116436734	5538.2830782003675	584.4317104631469	-343.6723468811166	5617.32025560554	621.9377806332983	-337.7318731000279	5594.033234716563	575.950303141285	-338.56994025539205	5567.977934609749	553.1477389304515	-334.24024816658914	5547.26145734089	547.7515459956066	-331.27919459276256	5527.066969981198	549.2076065955033	-328.646692102674	5620.728745496225	623.4358604314068	-329.1471289173807	5599.861747198693	579.3887467573528	-325.3224627742784	5571.9432077460615	554.8649394466104	-319.45631583780323	5547.195689781269	548.5266103135089	-315.336097686516	5525.218922711427	550.2034155979281	-312.18934636111806	5623.833840802458	625.5639156978752	-323.0906712635852	5608.128913882242	587.6323229466522	-314.49348446350916	5584.35107348306	566.6940941465823	-308.21939831130413	5560.775420036319	560.8122665829769	-303.6284942055206	5540.251647527174	562.4988329792382	-300.3775482593144	5627.277852236095	630.167147815906	-315.8492681662981	5615.333867734906	597.8510131945667	-303.60078551772733	5597.228698264261	581.9321192672638	-296.80250728894543	5580.484930119947	578.051932248677	-292.59563146318465	5562.564572806019	579.7819403979026	-289.2218907706174	5639.411100560534	1248.5895337970585	-169.81918828631268	5586.441697675252	1212.6318716585056	-43.097678143045044	5651.76239900644	976.3007220688069	-152.1673064255407	5744.748076498357	731.9802905946448	-254.5678410994849	5710.274059578212	711.8967178481568	-270.9249840394463	5695.002079994545	691.8112057956662	-305.9589596329216	5687.523401946642	676.07507784876	-329.6486864824306	5683.989251965691	661.4606882092511	-348.79216570675055	5716.962667909082	702.791077577065	-268.0179257131343	5692.549976239232	656.0044275486359	-294.047726221978	5683.383724617653	628.7594503311424	-322.15083181473705	5681.301796300479	619.7929314136784	-343.66231905461575	5682.018184286682	617.7484845390717	-364.19233983042085	5726.769986572145	699.9162595209237	-265.66125272374484	5708.2611308376345	652.7254634937227	-289.7723630264698	5699.6419374921215	622.774844005605	-320.0555239426741	5697.7938451415375	611.8510744354105	-345.8246052719274	5698.900343674226	609.5625620060383	-368.1988465790953	5734.258176602097	699.0044243938437	-263.2311477318078	5723.984607989882	655.701963027395	-282.43487174260554	5717.915537865038	629.4462756458954	-308.40153332293636	5716.899469065201	618.8294685976564	-333.03043418703703	5718.303119584218	616.6398057595025	-353.96009302058917	5744.097415660366	699.8973877026381	-260.4708692956842	5740.518944289304	660.4653755800541	-276.05262645906913	5737.956277431966	639.3952114721546	-296.09463534765354	5738.326396540082	631.6292180704357	-313.6957109128129	5740.20933602665	629.6768427346684	-332.0268743625935
